<?xml version="1.0" encoding="utf-8"?>
<svg xmlns="http://www.w3.org/2000/svg"
     viewBox="0 0 1200 1200">
    <title>Ruptura</title>

    <rect x="25"
          y="25"
          rx="100"
          width="1150"
          height="1150"
          fill="#334455" />

    <path d="m1148.7 890.04-71.199-77.113-15.73-67.625c-.375-1.6211-1.5664-2.9297-3.1406-3.4648-1.5781-.53125-3.3164-.21094-4.5977.84766l-78.859 65.215-49.961-88.285-7.9219-24.352v-.011718l-6.2617-19.219-.003907-.007813-7.5977-23.32 7.6016-23.336 6.2578-19.223 8.0781-24.824v.003906c.38281-1.1875.29297-2.4766-.25-3.5977l-12.113-24.816v-.007812l-9.3945-19.223-.003906-.003906-11.555-23.66 1.6523-23.535 1.3438-19.223 1.7266-24.824-.003906.003906c.074219-1.168-.27344-2.3242-.98828-3.2539l-19.047-24.82-14.75-19.223-15.91-20.73 39.68-26.207.13672-.089844 23.543-15.551 60.953-48.043.003906.003906c1.6797-1.3242 2.2812-3.6016 1.4727-5.5781l-22.277-54.957 71.031-31.738c2.4141-1.0898 3.4922-3.9219 2.4102-6.3398-1.0781-2.418-3.9102-3.5039-6.332-2.4336l-75.266 33.629h.003906c-2.3633 1.0586-3.4648 3.7969-2.4883 6.1953l22.66 55.91-57.793 45.57-17.266 11.398-12.75-67.441 43.137-78.562c1.2773-2.3242.42578-5.2461-1.9023-6.5234-2.3242-1.2773-5.2461-.42969-6.5234 1.8984l-43.961 80.074c-.53516.97656-.71484 2.1094-.50781 3.2031l13.816 73.086-40.301 26.602-78.762 4.3438-108.21 5.957-44.176-10.258v.003906c-.35547-.082032-.72266-.125-1.0898-.125h-130.28l-27.879-43.66 14.676-55.613v-.003906c.26172-.99219.19922-2.0391-.17969-2.9922l-15.215-38.434c-.98438-2.457-3.7695-3.6562-6.2266-2.6836-2.4609.97656-3.6719 3.7578-2.707 6.2188l14.633 36.965-14.809 56.129c-.34375 1.2969-.12891 2.6797.59375 3.8086l27.672 43.336-40.539 22.348-34.863 19.223-45.02 24.82c-.60156.32812-1.125.78906-1.5352 1.3398l-18.469 24.812-.011719.011719-14.297 19.223-.003906.011719-17.02 22.867-66.16.003906-20.457-63.301 36.953-54.516c.86328-1.2734 1.0625-2.8906.53125-4.3359l-38.266-105.1.003906-.003906c-.43359-1.2031-1.3242-2.1836-2.4805-2.7266-1.1602-.54688-2.4844-.60547-3.6836-.16797-1.2031.4375-2.1797 1.3359-2.7188 2.4961-.53516 1.1562-.58984 2.4844-.14453 3.6836l37.426 102.8-35.105 51.777-49.148-9.7695-24.543-43.699c-1.2969-2.3125-4.2266-3.1367-6.5391-1.8398-2.3164 1.3008-3.1367 4.2266-1.8398 6.543l25.625 45.625c.6875 1.2227 1.875 2.0859 3.25 2.3594l51.684 10.273 21.387 66.184c.64062 1.9805 2.4844 3.3281 4.5703 3.3242h68.93l9.6992 21.961 8.4961 19.223 9.7227 21.988-20.07 22.52-.003906.011718-17.121 19.211-32.812 36.812v-.003906c-1.1484 1.293-1.5195 3.1016-.96484 4.7383l4.3359 12.828 6.4922 19.219 7.5977 22.484-16.449 22.82-13.855 19.219-17.895 24.828v-.003906c-.58984.81641-.90625 1.7969-.90625 2.8047v40.637l-67.09 23.695c-1.6758.58984-2.8867 2.0547-3.1484 3.8086l-9.6094 63.234c-.19141 1.2617.125 2.543.87891 3.5703s1.8867 1.7109 3.1445 1.9023c1.2617.19141 2.5469-.125 3.5703-.87891 1.0273-.75781 1.7109-1.8867 1.9023-3.1484l9.1758-60.383 66.039-23.328 14.449 4.7656 58.027 19.141 21.141 23.852 31.629 35.688-42.07 65.387c-.71094 1.1055-.9375 2.457-.62891 3.7344l14.699 60.336-29.168 41.457c-.75781 1.0742-1.043 2.4141-.78516 3.7031l8.3047 41.645c.44531 2.2461 2.418 3.8633 4.707 3.8672.31641 0 .63281-.03125.94141-.09375 1.25-.25 2.3516-.98438 3.0586-2.043.70703-1.0586.96484-2.3555.71484-3.6055l-7.9023-39.625 29.238-41.551c.80078-1.1328 1.0703-2.5586.74219-3.9023l-14.727-60.457 42.141-65.488 141.62-62.137 75.582 8.6406h-.003906c1.2148.12891 2.4336-.20312 3.418-.92578l38.434-28.676 32.383-24.152 31.809-23.723 47.816 4.2305 28.824 2.543 75.266 6.6523.42188.019531c1.2344.003907 2.4219-.47266 3.3125-1.3242l40.293-38.414 20.156-19.219 21.57-20.566 49.977 88.316c.69922 1.2383 1.9102 2.1055 3.3086 2.3633 1.3984.25781 2.8398-.11328 3.9375-1.0195l77.301-63.918 14.254 61.301-.003906-.003906c.19141.8125.58984 1.5586 1.1562 2.168l72.062 78.043c1.8008 1.9492 4.8359 2.0703 6.7852.27344 1.9492-1.8008 2.0703-4.8359.27344-6.7852zm-248.86-217.32h-135.98v-40.035h135.98l-6.0352 18.535v.003906c-.30859.96484-.30859 2 0 2.9648zm9.3828-68.863h-58.891v-40.035h55.344l9.9453 20.375zm-26.375-86.777 8.7461 17.914-127.74-.003906v-40.031h119.89l-1.3789 19.68c-.058594.84375.10547 1.6836.47656 2.4414zm2.9102-50.953h-35.426v-40.035h20.223l16.496 21.496zm-121.9-79.922 72.992-4.0273 11.578 15.086h-84.57zm-114.79 6.1289-.003906-.003906c.44531.10547.89844.14453 1.3516.11719l75-4.1289v8.9414l-163.34.003906v-15.215h42.684zm-175.43-10.285h50.004v15.215h-77.609zm-122.92 67.766 43.027-23.723h14.59v40.035h-69.758zm-33.598 45.145h4.7383v40.035l-11.527-.003906-8.5664-19.398zm13.133 92.074c1.2539-1.4062 1.5664-3.4141.80859-5.1367l-7.9883-18.07h85.266v40.035l-93.082-.003907zm-40.688 45.652h32.293v40.035h-59.477l-2.3359-6.9141zm-11.852 91.691c.90625-1.2578 1.1484-2.875.65234-4.3438l-6.2461-18.484h136.21v40.039h-143.02zm-48.734 67.605 15.547-21.574h77.332v40.043h-92.879zm71.969 62.758-45.516-15.016 152.91-.44922v40.039h-84.73l-20.566-23.207-.003906.003907c-.56641-.63281-1.2852-1.1055-2.0898-1.3711zm274.19 8.3516-74.973-8.5664c-.84375-.074219-1.6914.054688-2.4727.375l-50.918 22.34v-37.965h160.3zm105.86-77.441c-1.1758-.10156-2.3477.23438-3.293.9375l-32 23.863h-83.633v-40.039h163.35v19.168zm151.57 13.398-68.715-6.082v-22.559h98.75zm40.113-38.246h-113.63c-1.2734 0-2.4961.50391-3.3984 1.4062s-1.4062 2.125-1.4062 3.3984v26.516l-19.219-1.6992v-24.816c.003906-1.2734-.50391-2.4961-1.4062-3.3984-.89844-.90234-2.1211-1.4062-3.3984-1.4062h-172.95c-1.2734 0-2.4961.50391-3.3984 1.4062-.89844.90234-1.4062 2.125-1.4062 3.3984v49.648c0 1.2734.50781 2.4961 1.4062 3.3945.90234.90234 2.125 1.4102 3.3984 1.4102h75.555l-14.621 10.902h.003906c-.27734-.21875-.57422-.41016-.89062-.56641-.17969-.13281-.37109-.25391-.57031-.36328-.57812-.23828-1.1992-.36328-1.8242-.36719h-172.95c-1.2773 0-2.5.50781-3.3984 1.4062-.90234.90234-1.4102 2.125-1.4062 3.3984v46.984l-80.398 35.27-24.645-27.805 81.02.003907c1.2773 0 2.4961-.50781 3.3984-1.4062.90234-.90234 1.4062-2.125 1.4062-3.3984v-49.648c0-1.2734-.50391-2.4961-1.4062-3.3984-.90234-.89844-2.1211-1.4062-3.3984-1.4062h-172.95c-.59375.007813-1.1797.125-1.7305.34766-.16797.082032-.33594.16797-.49609.26953-.85156.44531-1.5469 1.1445-1.9883 2-.097657.18359-.1875.37109-.26172.5625-.039063.11328-.11719.20312-.14844.32031l-6.582-2.168v-10.938h97.684c1.2734 0 2.4961-.50781 3.3984-1.4102.90234-.89844 1.4062-2.1211 1.4062-3.3945v-49.648c0-1.2734-.50391-2.4961-1.4062-3.3984-.90234-.90234-2.125-1.4062-3.3984-1.4062h-75.207l6.9258-9.6094h154.76c1.2773 0 2.4961-.50391 3.3984-1.4062s1.4062-2.1211 1.4062-3.3984v-49.645c0-1.2773-.50391-2.5-1.4062-3.3984-.89844-.90234-2.1211-1.4102-3.3984-1.4062h-144.27l-3.2461-9.6094h61.035c1.2773 0 2.4961-.50781 3.3984-1.4062.90234-.90234 1.4062-2.125 1.4062-3.3984v-49.645c0-1.2734-.50391-2.4961-1.4062-3.3945-.90234-.90234-2.125-1.4102-3.3984-1.4062h-28.535l8.5664-9.6133h106.45c1.2773 0 2.4961-.50781 3.3984-1.4062.90234-.90234 1.4062-2.125 1.4062-3.3984v-49.645c0-1.2734-.50391-2.4961-1.4062-3.3984-.90234-.89844-2.1211-1.4062-3.3984-1.4062h-94.316l-4.2461-9.6133h12.086c1.2734 0 2.4961-.50391 3.3984-1.4062.90234-.89844 1.4062-2.1211 1.4062-3.3984v-49.641c0-1.2734-.50391-2.4961-1.4062-3.3984-.90234-.90234-2.125-1.4062-3.3984-1.4062h-2.3945l7.1484-9.6133h81.723c1.2773 0 2.5-.50391 3.3984-1.4062.90234-.90234 1.4062-2.125 1.4062-3.3984v-49.645c0-1.2734-.50391-2.4961-1.4062-3.3945-.89844-.90234-2.1211-1.4102-3.3984-1.4062h-1.9688l17.438-9.6133h99.836c1.2734 0 2.4961-.50781 3.3984-1.4062.89844-.90234 1.4062-2.125 1.4062-3.3984v-20.02h19.219v20.02h-.003906c0 1.2734.50781 2.4961 1.4062 3.3984.90234.89844 2.125 1.4062 3.3984 1.4062h172.95c1.2773 0 2.5-.50781 3.3984-1.4062.90234-.90234 1.4102-2.125 1.4062-3.3984v-14.277l19.219-1.0547v15.332c0 1.2734.50391 2.4961 1.4062 3.3945.90234.90234 2.125 1.4102 3.3984 1.4102h96.75l7.375 9.6133-17.648-.003907c-1.2734 0-2.4961.50781-3.3984 1.4102-.90234.89844-1.4062 2.1211-1.4062 3.3945v49.645c0 1.2734.50391 2.4961 1.4062 3.3984.90234.89844 2.125 1.4062 3.3984 1.4062h39.559l-.67578 9.6133h-125.36c-1.2734 0-2.4961.50391-3.3984 1.4062s-1.4062 2.1211-1.4062 3.3984v49.645-.003907c0 1.2734.50391 2.4961 1.4062 3.3984s2.125 1.4062 3.3984 1.4062h137.23l4.6992 9.6133h-55.453c-1.2734 0-2.4961.50391-3.3984 1.4062-.90234.90234-1.4062 2.125-1.4062 3.3984v49.645c0 1.2734.50391 2.4961 1.4062 3.3945.90234.90234 2.125 1.4102 3.3984 1.4062h60.57l-3.1328 9.6133h-143.91c-1.2734 0-2.4961.50781-3.3984 1.4062-.90234.90234-1.4062 2.125-1.4062 3.3984v49.645c0 1.2734.50391 2.4961 1.4062 3.3984.90234.90234 2.125 1.4062 3.3984 1.4062h143.91l3.1328 9.6094h-60.57c-1.2734-.003906-2.4961.50391-3.3984 1.4062-.90234.89844-1.4062 2.1211-1.4062 3.3945v49.648c0 1.2734.50391 2.4961 1.4062 3.3984.90234.90234 2.125 1.4062 3.3984 1.4062h37.234zm20.156-19.219h-42.508v-40.039h58.891l6.0586 18.637z" />
    <path d="m441.93 475.73h172.95c1.2734 0 2.4961-.50391 3.3984-1.4062.90234-.90234 1.4062-2.125 1.4062-3.3984v-49.645c0-1.2734-.50391-2.4961-1.4062-3.3945-.90234-.90234-2.125-1.4102-3.3984-1.4062h-172.95c-1.2773-.003907-2.5.50391-3.3984 1.4062-.90234.89844-1.4102 2.1211-1.4062 3.3945v49.645c-.003906 1.2734.50391 2.4961 1.4062 3.3984.89844.90234 2.1211 1.4062 3.3984 1.4062zm4.8047-49.645h163.34v40.035h-163.34z" />
    <path d="m643.7 475.73h172.96c1.2734 0 2.4961-.50391 3.3984-1.4062.89844-.90234 1.4062-2.125 1.4062-3.3984v-49.645c0-1.2734-.50781-2.4961-1.4062-3.3945-.90234-.90234-2.125-1.4102-3.3984-1.4062h-172.96c-1.2734-.003907-2.4961.50391-3.3984 1.4062-.89844.89844-1.4062 2.1211-1.4062 3.3945v49.645c0 1.2734.50781 2.4961 1.4062 3.3984.90234.90234 2.125 1.4062 3.3984 1.4062zm4.8047-49.645h163.35v40.035h-163.35z" />
    <path d="m533.21 539.79v-49.641c0-1.2734-.50781-2.4961-1.4062-3.3984-.90234-.90234-2.125-1.4062-3.3984-1.4062h-172.95c-1.2773 0-2.5.50391-3.3984 1.4062-.90234.90234-1.4102 2.125-1.4062 3.3984v49.645-.003907c-.003906 1.2773.50391 2.5 1.4062 3.3984.89844.90234 2.1211 1.4062 3.3984 1.4062h172.95c1.2734 0 2.4961-.50391 3.3984-1.4062.89844-.89844 1.4062-2.1211 1.4062-3.3984zm-9.6094-4.8047h-163.34v-40.031h163.34v40.035z" />
    <path d="m437.12 559.01v49.645c0 1.2734.50391 2.4961 1.4062 3.3984.90234.89844 2.1211 1.4062 3.3984 1.4062h172.95c1.2734 0 2.4961-.50781 3.3984-1.4062.90234-.90234 1.4062-2.125 1.4062-3.3984v-49.645c0-1.2734-.50391-2.4961-1.4062-3.3984-.90234-.89844-2.125-1.4062-3.3984-1.4062h-172.95c-1.2773 0-2.5.50781-3.3984 1.4062-.90234.90234-1.4062 2.125-1.4062 3.3984zm9.6094 4.8047h163.34v40.035h-163.34z" />
    <path d="m638.9 559.01v49.645c0 1.2734.50781 2.4961 1.4062 3.3984.90234.89844 2.125 1.4062 3.3984 1.4062h172.96c1.2734 0 2.4961-.50781 3.3984-1.4062.89844-.90234 1.4062-2.125 1.4062-3.3984v-49.645c0-1.2734-.50781-2.4961-1.4062-3.3984-.90234-.89844-2.125-1.4062-3.3984-1.4062h-172.96c-1.2734 0-2.4961.50781-3.3984 1.4062-.89844.90234-1.4062 2.125-1.4062 3.3984zm9.6094 4.8047h163.35v40.035h-163.35z" />
    <path d="m533.21 677.52v-49.645c0-1.2734-.50781-2.4961-1.4062-3.3945-.90234-.90234-2.125-1.4102-3.3984-1.4062h-172.95c-1.2773-.003907-2.5.50391-3.3984 1.4062-.90234.89844-1.4102 2.1211-1.4062 3.3945v49.645c-.003906 1.2734.50391 2.4961 1.4062 3.3984.89844.90234 2.1211 1.4062 3.3984 1.4062h172.95c1.2734 0 2.4961-.50391 3.3984-1.4062.89844-.90234 1.4062-2.125 1.4062-3.3984zm-9.6094-4.8047h-163.34v-40.035h163.34z" />
    <path d="m557.23 682.32h172.95c1.2773 0 2.5-.50391 3.3984-1.4062.90234-.90234 1.4102-2.125 1.4062-3.3984v-49.645c.003906-1.2734-.50391-2.4961-1.4062-3.3945-.89844-.90234-2.1211-1.4102-3.3984-1.4062h-172.95c-1.2734-.003907-2.4961.50391-3.3984 1.4062-.89844.89844-1.4062 2.1211-1.4062 3.3945v49.645c0 1.2734.50781 2.4961 1.4062 3.3984.90234.90234 2.125 1.4062 3.3984 1.4062zm4.8047-49.645h163.35v40.035h-163.35z" />
    <path d="m614.88 691.93h-172.95c-1.2773-.003906-2.5.50391-3.3984 1.4062-.90234.89844-1.4102 2.1211-1.4062 3.3945v49.648c-.003906 1.2734.50391 2.4961 1.4062 3.3984.89844.90234 2.1211 1.4062 3.3984 1.4062h172.95c1.2734 0 2.4961-.50391 3.3984-1.4062s1.4062-2.125 1.4062-3.3984v-49.645c0-1.2773-.50391-2.5-1.4062-3.3984-.90234-.90234-2.125-1.4102-3.3984-1.4062zm-4.8047 49.648-163.34-.003906v-40.039h163.34z" />

    <path d="m531.42 380.29c-1.9063 7.6578.44344 16.098-1.3602 23.823-34.202 2.0768-68.82.20331-103.07 1.3419-4.2918 3.6634-12.509 4.426-14.332 10.375.56195 3.2875 4.7276 4.8414 3.3365 8.9482-.10033 15.686 1.326 31.693-.86492 47.194-5.2207 3.681-12.926 1.0653-18.987 2.0402-21.846.42505-44.01-.65685-65.652.5655-2.5334 2.9684-8.9464 7.5425-6.0772 12.08 1.9015 1.3621 5.185.0873 4.5802 3.8226 1.0416 16.53 1.3685 33.301-.0365 49.794-3.045 6.1146-14.549-1.0708-15.475 6.7095 1.7736 4.9136 4.1901 11.629 10.826 9.5256 30.291.5011 60.702-1.021 90.925.87634 1.4136 17.313 1.5119 35.242-.0434 52.491-31.317 1.9263-62.815.41846-94.197.92824-6.9775.45797-15.982-2.4193-19.601 5.6215-8.4143 5.878-1.4214 11.467 6.3672 9.0213 6.9727.32203 14.214-.68615 21.032.728 1.3508 17.489 1.5176 35.389-.0822 52.767-20.787 2.0265-41.93-.58116-62.679 1.9033-3.7476 3.4462.38973 9.9903 2.4898 13.33 48.424.89546 96.986-.78226 145.42.95621 3.5179 1.6125 1.0388 8.459 2.1115 11.938-.0512 13.424 1.0232 27.733-1.0777 40.642-36.602 1.903-73.345.47212-110 .9334-15.653.37273-31.676-.74006-47.102.54635-2.9421 2.8883-11.904 12.433-3.7756 13.557 24.846.70118 49.85-.65404 74.605 1.5062 1.4434 17.305 1.7734 35.239.0593 52.448-30.643 1.9007-61.471.38699-92.182.8809-7.1559-1.9903-11.53 2.3652-9.6101 9.4275-.85149 5.872 6.054 9.0982 10.642 6.2097 54.381-1.6862 108.83-.83032 163.23-.7277 4.9251.2964 9.9449-.19423 14.515.95592 1.2331 17.433 1.39 35.07-.15975 52.482-3.2737 4.2855 2.7569 7.5369 6.2051 4.5848 5.7293-3.2 13.998-4.0987 17.687-9.5302.29743-15.903-.6684-31.882.76223-47.74 56.588-1.9154 113.26-.5635 169.88-.9836 7.2608 1.3178 13.515-1.2184 18.678-6.2802 10.462-5.0003.32793-10.117-6.8153-7.8904-21.938-.42475-44.045.2401-65.847-1.3776-1.5151-17.285-1.5286-35.067-.15518-52.311 56.703-1.8499 113.49-1.439 170.21-.34232 3.6906-.13141 7.9891-.40437 6.8898 4.5278.85726 7.6033-.99039 15.66 1.0703 22.951 7.0766 1.9321 15.248 3.0981 22.385 1.294 1.7321-9.3809.65124-19.337 1.294-28.94 38.34-.48124 76.896.16225 115.1-1.0209 3.1136-3.7081 15.76-9.6904 8.9996-14.174-12.526-.19902-25.052-.39824-37.578-.59791v-53.158c20.634-.63103 41.463.54127 61.98-1.7184 3.7355-3.4366-.38367-9.963-2.4852-13.291-48.611-.67826-97.314-.46535-145.96-.80102v-53.114c48.31-.1967 96.621-.39374 144.93-.59107 3.6368-2.1316 5.7077-8.491 4.5711-12.721-8.0358-3.1376-17.548-1.2085-26.12-2.1063-12.315-.18731-24.631-.25653-36.946-.39264.17911-17.623-1.1739-35.562.22365-53.018 19.009-1.3736 38.319.10024 57.179-1.1564 3.215-4.4054-2.6766-15.656-9.6442-13.036-44.666-.37694-89.408.86957-134.03-1.0178-1.2781-17.73-1.0683-35.898.0388-53.479 42.039-1.8235 84.169-.52711 126.24-.93111 4.7615-2.3178 4.4274-16.104-3.5054-13.51-12.028-.3809-24.698.8699-36.368-1.2027-1.1279-17.769-1.0915-35.938.13921-53.539 6.4311-1.6558 13.434.54155 19.629-1.561.69024-4.9296-5.0028-12.74-10.553-12.636-31.877-.45745-64.266 1.0148-95.834-1.1342-2.0609-6.0602 1.9346-14.475-2.5084-19.022-6.9658.16007-14.757-.70767-21.44 1.4264-2.0399 5.418 1.0919 12.722-1.9512 17.623-36.252 2.0725-72.658.68031-108.97 1.0848-22.374-.38482-45.182.50273-67.298-1.2309-1.5109-7.8183.78051-16.196-1.3898-23.764-7.0337-1.0601-15.518-1.329-22.463.18486zm198.86 38.221c29.384.30347 59.21-.41188 88.325 1.3784.89145 17.28 1.4808 35.376-.20768 52.85-22.212 2.2402-45.046.78258-67.48 1.2848-36.3-.24368-72.759.51883-108.96-1.0703-1.2392-17.664-1.0395-35.73.0297-53.235 29.396-1.3864 58.871-1.022 88.293-1.2072zm-202.33.12095c29.485.25355 59.012-.48262 88.467.98132 1.0846 17.571 1.3174 35.713.0319 53.429-53.49 1.72-107.05.95764-160.57.70975-5.0592-.8981-11.742 1.1215-16.073-1.8212-1.3011-17.304-1.0361-35.047.26472-52.275 28.905-1.9399 58.679-.57484 87.88-1.0247zm-86.274 68.818c29.373.33069 59.28-.46473 88.33 1.4172 1.337 17.337.46304 35.13.72801 52.678-21.889 2.1121-44.2.89987-66.246 1.4186-36.493-.36313-73.076.9801-109.51-1.0762-4.2035-1.4578-1.2247-8.2353-2.3118-11.504.11454-13.887-.52889-28.126.71659-41.727 29.397-1.3863 58.873-1.022 88.296-1.2072zm86.662 68.904c29.374.23403 58.783-.12901 88.125 1.4035 1.1995 17.445.11179 34.965.18257 52.437-58.823-.21686-117.68 1.305-176.48-.36285-1.8753-16.958-1.4052-34.991-.22592-52.268 29.434-1.4661 58.94-1.0435 88.403-1.2095zm201.95.0342c29.401.17973 58.831-.17128 88.207 1.1981 1.3337 17.346 1.3408 34.866-.0137 52.211-50.109 1.7654-100.9.72364-151.27.83647-8.4778-.19006-17.303.0737-25.558-.84332-.92174-17.22-.62455-35.142.52489-52.213 29.337-1.3519 58.747-1.0122 88.109-1.189zm-288.41 68.904c29.374.23403 58.783-.12901 88.125 1.4035 1.1995 17.445.11178 34.965.18257 52.437-58.823-.21686-117.68 1.305-176.48-.36285-1.8753-16.958-1.4052-34.991-.22592-52.268 29.434-1.4661 58.94-1.0435 88.403-1.2095zm201.95.0342c29.401.17973 58.831-.17127 88.207 1.1981 1.3337 17.346 1.3408 34.866-.0137 52.211-50.109 1.7654-100.9.72365-151.27.83648-8.4778-.19006-17.303.0737-25.558-.84332-.92173-17.22-.62455-35.142.52489-52.213 29.337-1.3519 58.747-1.0122 88.109-1.189zm-115.74 69.078c29.482.10628 58.974-.0505 88.446.78733 1.1332 17.593.0222 35.26.11639 52.879-58.823-.21687-117.68 1.305-176.48-.36285-1.8718-16.987-1.415-35.049-.21452-52.352 29.337-1.4329 58.77-.71212 88.136-.95165z"
          fill="#aabbcc" />

    <g fill="#dd0000">
        <path d="m473.85 379.75c-9.442 5.8659-20.451 9.913-28.924 16.904 2.4661 6.7621 13.091 1.7405 18.953 3.285 19.991-.31928 40.252.64086 60.075-.46903 2.9827-4.9951 1.7828-13.479.72286-19.359-16.259-1.603-33.071-.22901-49.543-.6892l-1.132.28954z" />
        <path d="m560.63 380.29c-.43894 5.9373-2.6049 14.768 1.2754 19.377 54.272.62895 108.76.0896 163.12.26966 4.8082-2.3572 4.4638-16.783-3.6797-13.614-24.829 1.5008-49.991 3.087-74.906 3.5766-21.872-4.9746-43.706-12.171-66.449-10.483-6.3743.51603-13.3-1.0749-19.357.87406z" />
        <path d="m826.36 380.7c-20.503.98157-41.078 2.1389-61.492 3.6606-4.3737 3.2275-2.8767 10.506-1.9079 14.891 19.278 1.5641 39.096.31412 58.589.63671 8.7654-.50157 17.855.63155 26.45-1.0498 3.2898-4.987-4.2299-9.1268-6.196-13.378-3.397-5.1694-10.004-4.8381-15.443-4.7605z" />
        <path d="m399.73 423.83c-13.101 1.532-23.745 10.73-35.353 16.299-8.4567 4.871-17.703 9.3503-22.474 18.378-7.9207 6.2735-1.0192 11.595 6.7323 9.1993 19.845-.31989 39.959.63537 59.637-.47261 3.5852-5.535.63583-14.156 1.5969-20.888-.55982-7.2233 1.1374-14.923-.87405-21.84-2.848-1.3288-6.1994-.4716-9.2655-.67551z" />
        <path d="m444.96 424.69c-1.6006 13.196-.23058 26.943-.68921 40.35 4.0623 5.6644 13.814 1.2862 20.192 2.6655h144.89c5.6644-4.0623 1.2862-13.814 2.6655-20.192-.55653-7.6135 1.138-15.702-.87407-23.008-20.205-1.6065-40.964-.23101-61.383-.6892h-102.82l-1.0686.4726z" />
        <path d="m647.1 424.69c-1.6006 13.196-.23058 26.943-.68921 40.35 4.0623 5.6644 13.814 1.2862 20.192 2.6655h144.89c5.6644-4.0623 1.2862-13.814 2.6655-20.192-.55653-7.6135 1.138-15.702-.87406-23.008-20.205-1.6065-40.964-.23101-61.383-.6892h-102.82l-1.0686.4726z" />
        <path d="m849.24 424.69c-1.6006 13.196-.23058 26.943-.6892 40.35 3.8295 5.6218 13.308 1.3153 19.448 2.6655 6.1808-1.2291 15.052 2.6517 19.428-2.305 1.7289-8.6183 2.9448-18.615-3.904-25.491-4.6139-5.2662-7.8632-12.276-13.684-16.094-6.7826.5175-14.137-1.0756-20.599.87405z" />
        <path d="m318.78 492.79c-7.4744 4.7916-12.06 13.414-17.273 20.496-2.6988 5.9617 3.4897 11.876 4.8596 17.573 1.1423 8.0134 10.786 6.2534 16.353 4.9108 1.1989-12.87 1.0195-26.337.007-39.374-.24187-1.9384-1.774-3.9757-3.9458-3.6058z" />
        <path d="m358.49 493.63c-1.6006 13.196-.23058 26.943-.6892 40.35 4.0623 5.6644 13.814 1.2862 20.192 2.6655h144.89c5.6644-4.0623 1.2862-13.814 2.6655-20.192-.55652-7.6135 1.138-15.702-.87406-23.008-20.205-1.6065-40.964-.23101-61.383-.68921h-102.82l-1.0686.47261z" />
        <path d="m762.78 493.63c-1.6006 13.196-.23058 26.943-.68921 40.35 4.0623 5.6644 13.814 1.2862 20.192 2.6655 36.142-.29634 72.381.65804 108.47-.79418 4.3205-4.5446-2.8925-10.314-4.0554-15.188-4.8674-8.4221.50526-18.237-1.6523-27.078-15.885-1.9269-32.504-.2854-48.673-.8307-24.193.31421-48.653-.63111-72.68.47261z" />
        <path d="m322.33 562.57c-.65694 7.4356 5.3568 14.167 7.2549 21.381-4.4418 6.8696-11.467 12.074-15.083 19.279 4.5409 5.1334 13.76 1.0503 20.176 2.3552 24.499-.31786 49.267.63394 73.599-.47261 3.5852-5.535.63583-14.156 1.5969-20.888-.55982-7.2233 1.1374-14.923-.87405-21.84-20.001-1.6044-40.554-.23516-60.769-.6892-8.5426.57654-17.681-1.1593-25.902.87406z" />
        <path d="m444.96 562.57c-1.6006 13.196-.23058 26.943-.68921 40.35 4.0623 5.6644 13.814 1.2862 20.192 2.6655h144.89c5.6644-4.0623 1.2862-13.814 2.6655-20.192-.55653-7.6135 1.138-15.702-.87407-23.008-20.205-1.6065-40.964-.23101-61.383-.6892h-102.82l-1.0686.47261z" />
        <path d="m647.1 562.57c-1.6006 13.196-.23058 26.943-.68921 40.35 4.0623 5.6644 13.814 1.2862 20.192 2.6655h144.89c5.6644-4.0623 1.2862-13.814 2.6655-20.192-.55653-7.6135 1.138-15.702-.87406-23.008-20.205-1.6065-40.964-.23101-61.383-.6892h-102.82l-1.0686.47261z" />
        <path d="m849.24 562.57c-1.6006 13.209-.23069 26.97-.6892 40.391 4.0777 5.6685 13.832 1.1596 20.221 2.4756 13.983-.72338 28.477.84735 42.136-1.33 2.2129-6.8985 5.6814-13.92 6.2873-21.121-4.3964-6.7452-6.0007-16.385-12.214-21.29-18.242.32745-36.757-.64002-54.833.47261z" />
        <path d="m288.22 631.51c-9.4692 11.492-21.406 21.349-28.88 34.303-1.4626 4.955 2.09 10.856 7.9099 8.7132 18.155-.31583 36.576.6307 54.564-.47261 3.5852-5.535.63583-14.156 1.5969-20.888-.55982-7.2233 1.1374-14.923-.87406-21.84-10.527-1.5947-21.604-.22978-32.342-.6892l-1.0684.47306z" />
        <path d="m358.49 631.51c-1.6006 13.196-.23058 26.943-.6892 40.35 4.0623 5.6644 13.814 1.2862 20.192 2.6655h144.89c5.6644-4.0623 1.2862-13.814 2.6655-20.192-.55652-7.6135 1.138-15.702-.87406-23.008-20.205-1.6065-40.964-.23101-61.383-.6892h-102.82l-1.0686.4726z" />
        <path d="m560.63 631.51c-1.6006 13.196-.23059 26.943-.68921 40.35 4.0623 5.6644 13.814 1.2862 20.192 2.6655h144.89c5.6644-4.0623 1.2862-13.814 2.6655-20.192-.55652-7.6135 1.138-15.702-.87406-23.008-20.205-1.6065-40.964-.23101-61.383-.6892h-102.82l-1.0686.4726z" />
        <path d="m762.78 631.51c-1.6006 13.196-.23058 26.943-.68921 40.35 4.0623 5.6644 13.814 1.2862 20.192 2.6655h116.71c5.8481-3.0308-.94657-10.395-1.4743-15.366-4.3683-9.2369 3.5349-18.2 3.8066-27.153-7.3006-3.1659-16.498-.48492-24.533-1.3716h-112.03l-1.0686.4726z" />
        <path d="m271 700.45c-1.1742 7.3425 5.3684 14.514 4.7719 22.096-2.3103 6.603-8.8122 11.128-10.53 17.652 3.7585 4.8096 11.569 1.9029 16.931 2.995 41.676.49958 83.358.17971 125.04.27299 5.6644-4.0623 1.2862-13.814 2.6655-20.192-.55652-7.6135 1.138-15.702-.87406-23.008-20.205-1.6065-40.964-.23101-61.383-.68921-25.203.31537-50.674-.63245-75.71.47261z" />
        <path d="m444.96 700.45c-1.6006 13.196-.23058 26.943-.68921 40.35 4.0623 5.6644 13.814 1.2862 20.192 2.6655h144.89c5.6644-4.0623 1.2862-13.814 2.6655-20.192-.55653-7.6135 1.138-15.702-.87407-23.008-20.205-1.6065-40.964-.23101-61.383-.68921h-102.82l-1.0686.47261z" />
        <path d="m849.26 700.39c-1.6471 13.204-.23849 26.986-.70974 40.412 4.0659 5.6655 13.819 1.254 20.199 2.6173 8.5518-.48653 17.467.89731 25.784-.79846 7.3373-7.7415 16.575-14.176 22.691-22.757-2.4364-6.4118-3.4088-13.848-7.2891-19.476-19.841-.39592-40.04-1.1396-59.763-.38977z" />
        <path d="m242.86 769.6c-5.1302 7.6412-11.568 14.613-15.925 22.65 1.1304 6.3396-2.3611 15.083 1.9646 19.879 30.513.62931 61.243.0898 91.84.26966 5.6644-4.0623 1.2862-13.814 2.6655-20.192-.55652-7.6135 1.138-15.702-.87406-23.008-20.363-1.6064-41.28-.23136-61.857-.6892-5.8264.64268-12.439-1.3441-17.814 1.0909z" />
        <path d="m560.63 769.39c-1.6006 13.196-.23059 26.943-.68921 40.35 4.0623 5.6644 13.814 1.2862 20.192 2.6655 22.344-.36011 44.922.71916 67.12-.5363 10.716-8.0768 21.433-16.154 32.148-24.232 15.143 1.1628 30.284 2.8993 45.435 3.6674 5.0371-3.6965 1.7993-11.876 2.8504-17.203 1.0819-9.2681-11.18-4.3909-16.687-5.5867h-148.39l-1.0686.4726z" />
        <path d="m762.78 769.39c-1.1887 7.7538-.96281 16.181-.13465 24.063 7.2138 3.7353 16.672 2.0061 24.726 3.6658 15.118.54688 30.45 4.9313 45.506 2.2723 10.629-4.6705 16.861-15.608 25.718-22.733 9.4744-6.1079-.6645-10.2-7.5868-8.1421-29.074.31538-58.414-.63032-87.322.4726z" />
        <path d="m333.88 837.53c-24.762.34286-49.794-.57975-74.388.55169-4.4018 6.8324 10.24 6.7756 14.572 9.6445 12.788 4.8063 28.063 7.0513 36.218 19.377 5.999 5.2359 9.5504 16.299 19.212 14.059 26.224-.25667 52.712.75255 78.772-.29179 3.596-5.5294.63957-14.159 1.6027-20.891-.55981-7.2233 1.1374-14.923-.87406-21.84-20.206-1.589-40.966-.18707-61.385-.62429-4.5764.005-9.1529.01-13.729.015z" />
        <path d="m444.96 838.33c-1.5996 12.427-.23122 25.406-.68921 38.045 3.5929 6.1508 11.474-2.4276 16.666-3.1539 13.08-5.3098 25.901-12.262 39.124-16.595 24.65 2.4152 49.28 6.1955 73.932 7.9459 11.541-4.6834 20.495-14.231 30.613-21.327 3.2764-5.9625-5.9498-5.2084-9.3818-5.2489-49.423-.93776-98.86-.38771-148.29-.54087l-1.0686.47261z" />
    </g>
</svg>
